<?xml version="1.0" standalone="no"?><!DOCTYPE svg PUBLIC "-//W3C//DTD SVG 1.1//EN" "http://www.w3.org/Graphics/SVG/1.1/DTD/svg11.dtd"><svg t="1772503832047" class="icon" viewBox="0 0 1179 1024" version="1.1" xmlns="http://www.w3.org/2000/svg" p-id="9094" xmlns:xlink="http://www.w3.org/1999/xlink" width="230.2734375" height="200"><path d="M1084.239682 0.644238c50.582887 0 91.759894 40.573457 92.878835 90.729113l0.027125 2.09547v619.14702c0 50.582887-40.573457 91.759894-90.803708 92.878834l-2.102252 0.027126H630.051603v131.729802h154.02045c24.752318 0 44.757616 18.391311 44.757616 41.027814 0 22.127894-19.123709 40.207258-43.109722 41.000689l-1.647894 0.027126H393.887364c-24.752318 0-44.757616-18.398093-44.757616-41.027815 0-22.134675 19.123709-40.21404 43.116504-41.000689l1.641112-0.027125h154.020451v-131.729802H93.638358c-50.413351 0-91.678517-40.573457-92.797457-90.803708l-0.027126-2.102252V93.550199C0.813775 43.062252 41.299073 1.797086 91.536106 0.678146l2.102252-0.027126h990.601324zM88.152159 100.806358a29.424742 29.424742 0 0 0-0.813775 5.316662l-0.061033 1.837775v590.156291a29.499338 29.499338 0 0 0 27.939603 29.546808l1.559735 0.040689h944.406039a29.499338 29.499338 0 0 0 18.316716-6.37457L715.104636 513.505483l-56.903206 45.673113c-17.197775 13.786702-32.361113 0.386543-32.95788-19.78151l-0.020345-1.241007v-69.849006h-24.494622c-70.615311 0-209.207947 30.516556-242.186172 89.345695-6.523762 10.762172-13.305219 8.388662-13.305219 0 0.874808-63.664318 65.21049-132.136689 138.463788-176.114437L88.15894 155.97351v-55.167152z m973.030569-22.344901H116.776689c-5.384477 0-10.457007 1.458013-14.824265 4.00106l460.8 262.781457c21.198834-6.659391 41.516079-10.355285 59.581881-10.355285h2.882119V268.681325c0-24.833695 14.24106-35.09404 31.703311-21.022517l162.67359 130.970278c17.462252 14.071523 17.462252 37.040318 0 51.030464l-45.218755 36.280794 316.307496 180.386755V107.960795c0-16.356874-13.223841-29.499338-29.499338-29.499338z" fill="#000000" p-id="9095"></path></svg>